<?xml version="1.0" encoding="utf-8"?>
<!-- Generator: Adobe Illustrator 16.0.0, SVG Export Plug-In . SVG Version: 6.00 Build 0)  -->
<!DOCTYPE svg PUBLIC "-//W3C//DTD SVG 1.1//EN" "http://www.w3.org/Graphics/SVG/1.1/DTD/svg11.dtd">
<svg version="1.1" xmlns="http://www.w3.org/2000/svg" xmlns:xlink="http://www.w3.org/1999/xlink" x="0px" y="0px" width="35px"
	 height="35px" viewBox="0 0 35 35" enable-background="new 0 0 35 35" xml:space="preserve">
<g id="Layer_1">
</g>
<g id="header">
	<g id="fb-icon_2_">
		<path fill="#FFFFFF" d="M17.5,0C7.834,0,0,7.834,0,17.5C0,27.165,7.834,35,17.5,35C27.166,35,35,27.165,35,17.5
			C35,7.834,27.166,0,17.5,0z M17.5,32.266c-8.156,0-14.766-6.61-14.766-14.766S9.344,2.734,17.5,2.734
			c8.154,0,14.766,6.61,14.766,14.766S25.655,32.266,17.5,32.266z"/>
		<path fill="#FFFFFF" d="M21.653,14.821h-3.044V12.6c0-0.682,0.704-0.84,1.034-0.84c0.326,0,1.966,0,1.966,0V8.762L19.356,8.75
			c-3.076,0-3.777,2.235-3.777,3.669v2.402h-2.231v3.089h2.231c0,3.966,0,8.34,0,8.34h3.03c0,0,0-4.419,0-8.34h2.573L21.653,14.821z
			"/>
	</g>
</g>
</svg>
